<svg width="30" height="30" viewBox="0 0 30 30" fill="none" xmlns="http://www.w3.org/2000/svg">
<g clip-path="url(#clip0_2907_9967)">
<path d="M12.1875 20.625C14.2586 20.625 15.9375 18.9461 15.9375 16.875C15.9375 14.8039 14.2586 13.125 12.1875 13.125C10.1164 13.125 8.4375 14.8039 8.4375 16.875C8.4375 18.9461 10.1164 20.625 12.1875 20.625Z" stroke="#242222" stroke-width="2" stroke-linecap="round" stroke-linejoin="round"/>
<path d="M6.25664 24.375C6.7885 23.2521 7.62822 22.3033 8.67813 21.6388C9.72804 20.9744 10.945 20.6216 12.1875 20.6216C13.43 20.6216 14.647 20.9744 15.6969 21.6388C16.7468 22.3033 17.5865 23.2521 18.1184 24.375H25.3125C25.5611 24.375 25.7996 24.2762 25.9754 24.1004C26.1512 23.9246 26.25 23.6861 26.25 23.4375V6.5625C26.25 6.31386 26.1512 6.0754 25.9754 5.89959C25.7996 5.72377 25.5611 5.625 25.3125 5.625H4.6875C4.43886 5.625 4.2004 5.72377 4.02459 5.89959C3.84877 6.0754 3.75 6.31386 3.75 6.5625V23.4375C3.75 23.6861 3.84877 23.9246 4.02459 24.1004C4.2004 24.2762 4.43886 24.375 4.6875 24.375H6.25664Z" stroke="#242222" stroke-width="2" stroke-linecap="round" stroke-linejoin="round"/>
<path d="M20.625 20.625H22.5V9.375H7.5V11.25" stroke="#242222" stroke-width="2" stroke-linecap="round" stroke-linejoin="round"/>
</g>
<defs>
<clipPath id="clip0_2907_9967">
<rect width="30" height="30" fill="white"/>
</clipPath>
</defs>
</svg>
