<svg width="25" height="22" viewBox="0 0 25 22" fill="none" xmlns="http://www.w3.org/2000/svg">
<path d="M22.5 0H1.875C1.37772 0 0.900806 0.197544 0.549175 0.549175C0.197544 0.900805 2.40501e-07 1.37772 2.40501e-07 1.875V20.625C-0.000114269 20.7849 0.040664 20.9421 0.118459 21.0818C0.196253 21.2215 0.308479 21.339 0.444469 21.4231C0.580459 21.5071 0.735694 21.555 0.895418 21.5622C1.05514 21.5694 1.21405 21.5356 1.35703 21.4641L4.6875 19.7977L8.01797 21.4641C8.14822 21.5292 8.29186 21.5632 8.4375 21.5632C8.58314 21.5632 8.72678 21.5292 8.85703 21.4641L12.1875 19.7977L15.518 21.4641C15.6482 21.5292 15.7919 21.5632 15.9375 21.5632C16.0831 21.5632 16.2268 21.5292 16.357 21.4641L19.6875 19.7977L23.018 21.4641C23.161 21.5356 23.3199 21.5694 23.4796 21.5622C23.6393 21.555 23.7945 21.5071 23.9305 21.4231C24.0665 21.339 24.1787 21.2215 24.2565 21.0818C24.3343 20.9421 24.3751 20.7849 24.375 20.625V1.875C24.375 1.37772 24.1775 0.900805 23.8258 0.549175C23.4742 0.197544 22.9973 0 22.5 0ZM22.5 19.1086L20.107 17.9109C19.9768 17.8458 19.8331 17.8118 19.6875 17.8118C19.5419 17.8118 19.3982 17.8458 19.268 17.9109L15.9375 19.5773L12.607 17.9109C12.4768 17.8458 12.3331 17.8118 12.1875 17.8118C12.0419 17.8118 11.8982 17.8458 11.768 17.9109L8.4375 19.5773L5.10703 17.9109C4.97679 17.8458 4.83314 17.8118 4.6875 17.8118C4.54186 17.8118 4.39822 17.8458 4.26797 17.9109L1.875 19.1086V1.875H22.5V19.1086ZM4.26797 14.9016C4.37814 14.9567 4.49811 14.9897 4.62101 14.9984C4.74391 15.0072 4.86734 14.9917 4.98423 14.9527C5.10112 14.9137 5.20919 14.8521 5.30225 14.7713C5.39531 14.6906 5.47153 14.5923 5.52656 14.482L6.20391 13.125H10.6711L11.3484 14.482C11.4035 14.5922 11.4798 14.6905 11.5729 14.7712C11.6659 14.8519 11.774 14.9135 11.8908 14.9525C12.0077 14.9914 12.1311 15.007 12.254 14.9982C12.3769 14.9895 12.4968 14.9567 12.607 14.9016C12.7172 14.8465 12.8155 14.7702 12.8962 14.6771C12.9769 14.5841 13.0385 14.476 13.0775 14.3592C13.1164 14.2423 13.132 14.1189 13.1232 13.996C13.1145 13.8731 13.0817 13.7532 13.0266 13.643L9.27656 6.14297C9.19881 5.98696 9.0791 5.85572 8.93088 5.76399C8.78267 5.67225 8.61181 5.62365 8.4375 5.62365C8.26319 5.62365 8.09233 5.67225 7.94412 5.76399C7.7959 5.85572 7.67619 5.98696 7.59844 6.14297L3.84844 13.643C3.79326 13.7531 3.76035 13.8731 3.75157 13.996C3.7428 14.1189 3.75834 14.2423 3.7973 14.3592C3.83627 14.4761 3.89789 14.5842 3.97865 14.6772C4.05941 14.7703 4.15773 14.8465 4.26797 14.9016ZM8.4375 8.65898L9.73359 11.25H7.14141L8.4375 8.65898ZM13.125 10.3125C13.125 10.0639 13.2238 9.8254 13.3996 9.64959C13.5754 9.47377 13.8139 9.375 14.0625 9.375H15.9375V7.5C15.9375 7.25136 16.0363 7.0129 16.2121 6.83709C16.3879 6.66127 16.6264 6.5625 16.875 6.5625C17.1236 6.5625 17.3621 6.66127 17.5379 6.83709C17.7137 7.0129 17.8125 7.25136 17.8125 7.5V9.375H19.6875C19.9361 9.375 20.1746 9.47377 20.3504 9.64959C20.5262 9.8254 20.625 10.0639 20.625 10.3125C20.625 10.5611 20.5262 10.7996 20.3504 10.9754C20.1746 11.1512 19.9361 11.25 19.6875 11.25H17.8125V13.125C17.8125 13.3736 17.7137 13.6121 17.5379 13.7879C17.3621 13.9637 17.1236 14.0625 16.875 14.0625C16.6264 14.0625 16.3879 13.9637 16.2121 13.7879C16.0363 13.6121 15.9375 13.3736 15.9375 13.125V11.25H14.0625C13.8139 11.25 13.5754 11.1512 13.3996 10.9754C13.2238 10.7996 13.125 10.5611 13.125 10.3125Z" fill="#302D2D"/>
</svg>
