<svg width="30" height="30" viewBox="0 0 30 30" fill="none" xmlns="http://www.w3.org/2000/svg">
<path d="M15.0009 9.37493C13.8884 9.37493 12.8009 9.70483 11.8758 10.3229C10.9508 10.941 10.2298 11.8195 9.80409 12.8473C9.37834 13.8752 9.26695 15.0062 9.48399 16.0973C9.70103 17.1885 10.2368 18.1907 11.0234 18.9774C11.8101 19.7641 12.8124 20.2998 13.9035 20.5168C14.9947 20.7339 16.1257 20.6225 17.1535 20.1968C18.1813 19.771 19.0598 19.05 19.6779 18.125C20.296 17.2 20.6259 16.1125 20.6259 14.9999C20.6244 13.5086 20.0312 12.0787 18.9767 11.0242C17.9221 9.96961 16.4923 9.37648 15.0009 9.37493ZM15.0009 18.7499C14.2592 18.7499 13.5342 18.53 12.9175 18.1179C12.3008 17.7059 11.8202 17.1202 11.5364 16.435C11.2525 15.7498 11.1783 14.9958 11.323 14.2683C11.4677 13.5409 11.8248 12.8727 12.3493 12.3483C12.8737 11.8238 13.5419 11.4667 14.2693 11.322C14.9967 11.1773 15.7507 11.2516 16.436 11.5354C17.1212 11.8192 17.7069 12.2999 18.1189 12.9165C18.531 13.5332 18.7509 14.2583 18.7509 14.9999C18.7509 15.9945 18.3558 16.9483 17.6526 17.6516C16.9493 18.3548 15.9955 18.7499 15.0009 18.7499ZM25.3134 15.2531C25.3181 15.0843 25.3181 14.9156 25.3134 14.7468L27.0618 12.5624C27.1535 12.4477 27.217 12.3131 27.2471 12.1694C27.2772 12.0257 27.2732 11.8769 27.2353 11.7351C26.9487 10.6577 26.5199 9.62319 25.9603 8.65892C25.887 8.53273 25.7853 8.42538 25.6632 8.34543C25.5412 8.26547 25.4021 8.21512 25.2572 8.19837L22.4775 7.88899C22.3618 7.76712 22.2447 7.64993 22.1259 7.53743L21.7978 4.75071C21.7809 4.60565 21.7304 4.46653 21.6502 4.34446C21.57 4.22238 21.4625 4.12073 21.3361 4.04759C20.3714 3.48901 19.337 3.06067 18.2599 2.77376C18.118 2.73602 17.9691 2.73216 17.8254 2.76249C17.6817 2.79282 17.5471 2.85649 17.4325 2.94837L15.254 4.68743C15.0853 4.68743 14.9165 4.68743 14.7478 4.68743L12.5634 2.94251C12.4487 2.85083 12.3141 2.78737 12.1704 2.75725C12.0267 2.72712 11.8779 2.73117 11.7361 2.76907C10.6588 3.05621 9.62441 3.48495 8.65989 4.04407C8.5337 4.11734 8.42636 4.21906 8.34641 4.34113C8.26645 4.4632 8.2161 4.60224 8.19935 4.7472L7.88997 7.53157C7.7681 7.64798 7.65091 7.76517 7.53841 7.88313L4.75169 8.20306C4.60663 8.21993 4.46751 8.27047 4.34544 8.35063C4.22336 8.43079 4.1217 8.53837 4.04856 8.66478C3.48999 9.62942 3.06165 10.6638 2.77474 11.7409C2.737 11.8829 2.73314 12.0317 2.76347 12.1754C2.7938 12.3191 2.85747 12.4537 2.94935 12.5683L4.68841 14.7468C4.68841 14.9156 4.68841 15.0843 4.68841 15.2531L2.94349 17.4374C2.85181 17.5521 2.78835 17.6867 2.75823 17.8304C2.7281 17.9742 2.73215 18.1229 2.77005 18.2648C3.05668 19.3422 3.48544 20.3767 4.04505 21.3409C4.11832 21.4671 4.22004 21.5745 4.34211 21.6544C4.46417 21.7344 4.60322 21.7847 4.74817 21.8015L7.52786 22.1109C7.64427 22.2327 7.76146 22.3499 7.87942 22.4624L8.20403 25.2492C8.22091 25.3942 8.27144 25.5333 8.35161 25.6554C8.43177 25.7775 8.53934 25.8791 8.66575 25.9523C9.6304 26.5109 10.6648 26.9392 11.7419 27.2261C11.8839 27.2638 12.0327 27.2677 12.1764 27.2374C12.3201 27.207 12.4547 27.1434 12.5693 27.0515L14.7478 25.3124C14.9165 25.3171 15.0853 25.3171 15.254 25.3124L17.4384 27.0609C17.5531 27.1525 17.6877 27.216 17.8314 27.2461C17.9751 27.2763 18.1239 27.2722 18.2658 27.2343C19.3432 26.9477 20.3776 26.5189 21.3419 25.9593C21.4681 25.886 21.5755 25.7843 21.6554 25.6623C21.7354 25.5402 21.7857 25.4011 21.8025 25.2562L22.1118 22.4765C22.2337 22.3609 22.3509 22.2437 22.4634 22.1249L25.2501 21.7968C25.3952 21.7799 25.5343 21.7294 25.6564 21.6492C25.7785 21.5691 25.8801 21.4615 25.9533 21.3351C26.5118 20.3704 26.9402 19.3361 27.2271 18.2589C27.2648 18.117 27.2687 17.9682 27.2383 17.8244C27.208 17.6807 27.1444 17.5462 27.0525 17.4316L25.3134 15.2531ZM23.4267 14.4913C23.4466 14.8301 23.4466 15.1698 23.4267 15.5085C23.4127 15.7405 23.4854 15.9693 23.6306 16.1507L25.2935 18.2284C25.1027 18.8349 24.8584 19.4231 24.5634 19.9863L21.915 20.2863C21.6843 20.3119 21.4714 20.4221 21.3173 20.5956C21.0917 20.8493 20.8515 21.0896 20.5978 21.3152C20.4242 21.4692 20.314 21.6822 20.2884 21.9128L19.9943 24.5589C19.4312 24.854 18.8429 25.0983 18.2365 25.289L16.1575 23.6261C15.9912 23.4932 15.7845 23.4209 15.5716 23.421H15.5154C15.1766 23.4409 14.8369 23.4409 14.4982 23.421C14.2662 23.4071 14.0374 23.4797 13.856 23.6249L11.7724 25.289C11.166 25.0982 10.5777 24.8539 10.0146 24.5589L9.71458 21.914C9.68898 21.6834 9.57874 21.4704 9.40521 21.3163C9.1515 21.0908 8.91125 20.8505 8.68567 20.5968C8.53161 20.4233 8.31866 20.313 8.08802 20.2874L5.44192 19.9921C5.14684 19.429 4.90251 18.8408 4.71185 18.2343L6.37474 16.1554C6.51994 15.974 6.5926 15.7451 6.57864 15.5132C6.55872 15.1744 6.55872 14.8348 6.57864 14.496C6.5926 14.2641 6.51994 14.0352 6.37474 13.8538L4.71185 11.7714C4.90266 11.165 5.14698 10.5768 5.44192 10.0136L8.08685 9.7136C8.31749 9.688 8.53044 9.57777 8.6845 9.40423C8.91008 9.15053 9.15033 8.91027 9.40403 8.6847C9.57826 8.53053 9.68895 8.3171 9.71458 8.08587L10.0087 5.44095C10.5718 5.14586 11.1601 4.90153 11.7665 4.71087L13.8454 6.37376C14.0268 6.51896 14.2557 6.59163 14.4876 6.57767C14.8264 6.55774 15.166 6.55774 15.5048 6.57767C15.7368 6.59163 15.9656 6.51896 16.147 6.37376L18.2294 4.71087C18.8358 4.90168 19.4241 5.146 19.9872 5.44095L20.2872 8.08587C20.3128 8.31651 20.4231 8.52946 20.5966 8.68353C20.8503 8.9091 21.0906 9.14936 21.3161 9.40306C21.4702 9.5766 21.6832 9.68683 21.9138 9.71243L24.5599 10.0066C24.855 10.5697 25.0993 11.1579 25.29 11.7644L23.6271 13.8433C23.4805 14.0262 23.4077 14.2574 23.4232 14.4913H23.4267Z" fill="black"/>
</svg>
