<svg width="23" height="24" viewBox="0 0 23 24" fill="none" xmlns="http://www.w3.org/2000/svg">
<path d="M21.9504 9.92374L12.5754 0.54874C12.2238 0.197375 11.7471 0 11.25 0C10.7529 0 10.2762 0.197375 9.92462 0.54874L0.549621 9.92374C0.374665 10.0974 0.235979 10.3041 0.141625 10.5318C0.0472718 10.7596 -0.000865613 11.0038 1.17814e-05 11.2503V22.5003C1.17814e-05 22.7489 0.098784 22.9874 0.274599 23.1632C0.450415 23.339 0.688871 23.4378 0.937512 23.4378H8.43751C8.68615 23.4378 8.92461 23.339 9.10042 23.1632C9.27624 22.9874 9.37501 22.7489 9.37501 22.5003V15.9378H13.125V22.5003C13.125 22.7489 13.2238 22.9874 13.3996 23.1632C13.5754 23.339 13.8139 23.4378 14.0625 23.4378H21.5625C21.8112 23.4378 22.0496 23.339 22.2254 23.1632C22.4012 22.9874 22.5 22.7489 22.5 22.5003V11.2503C22.5009 11.0038 22.4528 10.7596 22.3584 10.5318C22.264 10.3041 22.1254 10.0974 21.9504 9.92374ZM20.625 21.5628H15V15.0003C15 14.7517 14.9012 14.5132 14.7254 14.3374C14.5496 14.1616 14.3112 14.0628 14.0625 14.0628H8.43751C8.18887 14.0628 7.95042 14.1616 7.7746 14.3374C7.59878 14.5132 7.50001 14.7517 7.50001 15.0003V21.5628H1.87501V11.2503L11.25 1.8753L20.625 11.2503V21.5628Z" fill="white"/>
</svg>
