<svg width="23" height="24" viewBox="0 0 23 24" fill="none" xmlns="http://www.w3.org/2000/svg">
<path d="M22.459 19.9853L18.5695 1.49314C18.5192 1.25132 18.4216 1.02181 18.2824 0.817817C18.1431 0.61382 17.9649 0.43935 17.758 0.304431C17.5511 0.169511 17.3196 0.0768009 17.0767 0.0316259C16.8339 -0.0135491 16.5845 -0.0102985 16.343 0.0411911L10.8574 1.2201C10.3722 1.32634 9.94856 1.61986 9.67863 2.03683C9.4087 2.45379 9.31432 2.96047 9.41602 3.44666L13.3055 21.9388C13.3921 22.3607 13.6214 22.7399 13.9548 23.0127C14.2881 23.2854 14.7052 23.4351 15.1359 23.4365C15.2691 23.4363 15.4018 23.4222 15.532 23.3943L21.0176 22.2154C21.5034 22.1089 21.9274 21.8148 22.1974 21.3971C22.4674 20.9794 22.5614 20.472 22.459 19.9853ZM11.25 3.06346C11.25 3.05643 11.25 3.05291 11.25 3.05291L16.7344 1.88103L17.1246 3.7408L11.6402 4.92088L11.25 3.06346ZM12.0258 6.75135L17.5125 5.57361L17.9039 7.43689L12.4219 8.6158L12.0258 6.75135ZM12.8039 10.451L18.2906 9.27205L19.8492 16.683L14.3625 17.8619L12.8039 10.451ZM20.625 20.3826L15.1406 21.5545L14.7504 19.6947L20.2348 18.5146L20.625 20.3721C20.625 20.3791 20.625 20.3826 20.625 20.3826ZM7.5 0.936504H1.875C1.37772 0.936504 0.900805 1.13405 0.549175 1.48568C0.197544 1.83731 0 2.31422 0 2.8115V21.5615C0 22.0588 0.197544 22.5357 0.549175 22.8873C0.900805 23.239 1.37772 23.4365 1.875 23.4365H7.5C7.99728 23.4365 8.47419 23.239 8.82582 22.8873C9.17746 22.5357 9.375 22.0588 9.375 21.5615V2.8115C9.375 2.31422 9.17746 1.83731 8.82582 1.48568C8.47419 1.13405 7.99728 0.936504 7.5 0.936504ZM1.875 2.8115H7.5V4.6865H1.875V2.8115ZM1.875 6.5615H7.5V17.8115H1.875V6.5615ZM7.5 21.5615H1.875V19.6865H7.5V21.5615Z" fill="black"/>
</svg>
